<mxfile host="Electron" agent="Mozilla/5.0 (X11; Linux x86_64) AppleWebKit/537.36 (KHTML, like Gecko) draw.io/28.1.2 Chrome/138.0.7204.243 Electron/37.4.0 Safari/537.36" version="28.1.2">
  <diagram name="Page-1" id="-bjDwCmjAlqTcBMfazYj">
    <mxGraphModel dx="430" dy="1002" grid="1" gridSize="10" guides="1" tooltips="1" connect="1" arrows="1" fold="1" page="1" pageScale="1" pageWidth="850" pageHeight="1100" math="0" shadow="0">
      <root>
        <mxCell id="0" />
        <mxCell id="1" parent="0" />
        <mxCell id="0tNcj8q2K9d-aOfRS9DE-5" style="edgeStyle=orthogonalEdgeStyle;rounded=0;orthogonalLoop=1;jettySize=auto;html=1;entryX=0.5;entryY=0;entryDx=0;entryDy=0;" edge="1" parent="1" source="0tNcj8q2K9d-aOfRS9DE-1" target="0tNcj8q2K9d-aOfRS9DE-4">
          <mxGeometry relative="1" as="geometry" />
        </mxCell>
        <mxCell id="0tNcj8q2K9d-aOfRS9DE-1" value="Чтение текущей позиции" style="rounded=0;whiteSpace=wrap;html=1;" vertex="1" parent="1">
          <mxGeometry x="140" y="280" width="120" height="60" as="geometry" />
        </mxCell>
        <mxCell id="0tNcj8q2K9d-aOfRS9DE-3" style="edgeStyle=orthogonalEdgeStyle;rounded=0;orthogonalLoop=1;jettySize=auto;html=1;entryX=0.5;entryY=0;entryDx=0;entryDy=0;" edge="1" parent="1" source="0tNcj8q2K9d-aOfRS9DE-2" target="0tNcj8q2K9d-aOfRS9DE-1">
          <mxGeometry relative="1" as="geometry" />
        </mxCell>
        <mxCell id="0tNcj8q2K9d-aOfRS9DE-2" value="Начало" style="ellipse;whiteSpace=wrap;html=1;" vertex="1" parent="1">
          <mxGeometry x="140" y="210" width="120" height="40" as="geometry" />
        </mxCell>
        <mxCell id="0tNcj8q2K9d-aOfRS9DE-7" style="edgeStyle=orthogonalEdgeStyle;rounded=0;orthogonalLoop=1;jettySize=auto;html=1;entryX=0.5;entryY=0;entryDx=0;entryDy=0;" edge="1" parent="1" source="0tNcj8q2K9d-aOfRS9DE-4" target="0tNcj8q2K9d-aOfRS9DE-6">
          <mxGeometry relative="1" as="geometry" />
        </mxCell>
        <mxCell id="0tNcj8q2K9d-aOfRS9DE-4" value="Вычисление значений для каналов R, G, B" style="rounded=0;whiteSpace=wrap;html=1;" vertex="1" parent="1">
          <mxGeometry x="140" y="380" width="120" height="60" as="geometry" />
        </mxCell>
        <mxCell id="0tNcj8q2K9d-aOfRS9DE-9" style="edgeStyle=orthogonalEdgeStyle;rounded=0;orthogonalLoop=1;jettySize=auto;html=1;" edge="1" parent="1" source="0tNcj8q2K9d-aOfRS9DE-6" target="0tNcj8q2K9d-aOfRS9DE-8">
          <mxGeometry relative="1" as="geometry" />
        </mxCell>
        <mxCell id="0tNcj8q2K9d-aOfRS9DE-6" value="Подача необходимого напряжения на светодиоды" style="rounded=0;whiteSpace=wrap;html=1;" vertex="1" parent="1">
          <mxGeometry x="140" y="480" width="120" height="60" as="geometry" />
        </mxCell>
        <mxCell id="0tNcj8q2K9d-aOfRS9DE-8" value="Конец" style="ellipse;whiteSpace=wrap;html=1;" vertex="1" parent="1">
          <mxGeometry x="140" y="580" width="120" height="40" as="geometry" />
        </mxCell>
      </root>
    </mxGraphModel>
  </diagram>
</mxfile>
